<svg xmlns="http://www.w3.org/2000/svg" width="80" height="26" fill="none">
    <path fill="#fff"
          d="M34.332 15.016c0-3.081-1.793-5.402-4.57-5.402-1.235 0-2.276.527-3.028 1.54V6.222h-2.681v14.001h2.468v-1.501c.791 1.092 1.91 1.696 3.24 1.696 2.778 0 4.571-2.36 4.571-5.401Zm-2.758 0c0 1.95-1.099 2.983-2.41 2.983-1.331 0-2.411-1.053-2.411-3.022 0-1.97 1.118-2.964 2.41-2.964 1.312 0 2.411 1.014 2.411 3.003Zm6.212 5.206v-14h-2.7v14h2.7Zm7.572 0h2.18V13.67c0-2.554-1.582-4.056-4.282-4.056-2.488 0-4.204 1.56-4.359 3.959h2.411c.097-1.17.79-1.853 1.948-1.853 1.119 0 1.774.683 1.774 1.853v.624a13.357 13.357 0 0 0-1.716-.117c-3.009 0-4.629 1.092-4.629 3.12 0 1.95 1.427 3.217 3.568 3.217 1.408 0 2.43-.507 3.105-1.482v1.287Zm-4.146-3.1c0-.936.752-1.424 2.275-1.424.463 0 .907.04 1.543.137v.74c0 1.21-.829 1.97-2.198 1.97-1.003 0-1.62-.546-1.62-1.423Zm10.352-2.574c0-1.677.906-2.535 1.967-2.535 1.215 0 1.813.858 1.813 2.398v5.811h2.661v-6.727c0-2.516-1.427-3.88-3.49-3.88-1.35 0-2.411.643-3.163 1.676V9.81h-2.469v10.413h2.68v-5.674Zm10.468 5.674v-4.836l3.934 4.836h3.414l-4.764-5.42 4.262-4.993h-3.086l-3.76 4.407V6.221H59.35v14.001h2.68Zm11.528.195c2.99 0 5.226-2.379 5.226-5.401 0-3.042-2.237-5.402-5.226-5.402s-5.226 2.36-5.226 5.402c0 3.022 2.237 5.401 5.226 5.401Zm0-2.398c-1.33 0-2.468-1.073-2.468-3.003 0-1.93 1.137-2.984 2.468-2.984 1.33 0 2.469 1.053 2.469 2.984 0 1.93-1.138 3.003-2.469 3.003Z"/>
    <path fill="#FF7043" d="M15.714 4.333h-3.571v12.278h3.571V4.333ZM12.143 20.222v-3.61H0v3.61h12.143Z"/>
    <path fill="#FF7043" d="M15.714 7.944v-3.61H3.571v3.61h12.143ZM0 20.222h3.571V7.944H0v12.278Z"/>
</svg>