<svg aria-hidden="true" style="position: absolute; width: 0; height: 0; overflow: hidden;" version="1.1"
     xmlns="http://www.w3.org/2000/svg" xmlns:xlink="http://www.w3.org/1999/xlink">
    <defs>
        <symbol id="burger" viewBox="0 0 58 32">
            <path fill="#fff" style="fill: var(--color1, #fff)" d="M0 0h58.182v2.909h-58.182v-2.909z"></path>
            <path fill="#fff" style="fill: var(--color1, #fff)" d="M0 14.545h58.182v2.909h-58.182v-2.909z"></path>
            <path fill="#fff" style="fill: var(--color1, #fff)" d="M0 29.091h58.182v2.909h-58.182v-2.909z"></path>
        </symbol>
        <symbol id="close" viewBox="0 0 49 32">
            <path fill="#fff" style="fill: var(--color1, #fff)"
                  d="M2.683 27.077l42.635-24.615 1.231 2.132-42.635 24.615-1.231-2.132z"></path>
            <path fill="#fff" style="fill: var(--color1, #fff)"
                  d="M3.913 2.626l42.635 24.615-1.231 2.132-42.635-24.615 1.231-2.132z"></path>
        </symbol>
        <symbol id="facebook" viewBox="0 0 9 16">
            <path d="M5.39329 16V8.70162H7.84302L8.20983 5.85732H5.39329V4.04141C5.39329 3.21792 5.62196 2.65673 6.80284 2.65673L8.30899 2.65608V0.112105C8.04851 0.0774423 7.15444 0 6.11426 0C3.94272 0 2.45602 1.32551 2.45602 3.75972V5.85732H0V8.70162H2.45602V16H5.39329Z"/>
        </symbol>
        <symbol id="twitter" viewBox="0 0 16 13">
            <path d="M15.2777 1.5552C15.1789 1.44951 15.0214 1.42327 14.8937 1.4912C14.7388 1.56212 14.5782 1.61993 14.4137 1.664C14.6577 1.35987 14.8423 1.01248 14.9577 0.640004C14.9892 0.510928 14.9377 0.375789 14.8283 0.300451C14.7188 0.225114 14.5742 0.225254 14.4649 0.300804C13.9549 0.582865 13.4107 0.797972 12.8457 0.940804C12.2388 0.336964 11.417 -0.00139233 10.5609 4.30655e-06C9.87783 0.0150235 9.21266 0.221225 8.64089 0.595204C7.42489 1.28 7.21369 2.8608 7.30329 3.84C5.04896 3.64989 2.96925 2.54995 1.54329 0.793604C1.48495 0.703875 1.38769 0.64694 1.28089 0.640004C1.17418 0.647206 1.07812 0.707241 1.02489 0.800004C0.365586 1.9417 0.420347 3.36052 1.16569 4.448C1.06969 4.384 0.967286 4.3072 0.864886 4.224C0.769418 4.12936 0.624974 4.10447 0.503337 4.16171C0.3817 4.21895 0.308808 4.34612 0.320886 4.48C0.340298 5.67097 0.936931 6.77832 1.92089 7.4496L1.67129 7.3792C1.5526 7.34227 1.42326 7.3774 1.33958 7.46932C1.25589 7.56123 1.23301 7.69329 1.28089 7.808C1.78318 8.94252 2.76706 9.79255 3.96249 10.1248C2.87269 10.7544 1.61016 11.019 0.359286 10.88C0.208066 10.8613 0.0646432 10.9518 0.0164595 11.0964C-0.0317242 11.2409 0.0286975 11.3994 0.160886 11.4752C1.66576 12.353 3.37875 12.8105 5.12089 12.8C7.58138 12.7799 9.91376 11.7 11.5209 9.8368C13.1219 8.12092 13.9639 5.83234 13.8569 3.488C14.4272 3.05222 14.9186 2.52187 15.3097 1.92C15.3765 1.80372 15.3638 1.65808 15.2777 1.5552Z"/>
        </symbol>
        <symbol id="instagram" viewBox="0 0 14 14">
            <path fill-rule="evenodd" clip-rule="evenodd"
                  d="M10.5 0H3.5C1.57518 0 0 1.57448 0 3.5V10.5C0 12.4248 1.57518 14 3.5 14H10.5C12.4248 14 14 12.4248 14 10.5V3.5C14 1.57448 12.4248 0 10.5 0ZM6.99973 9.91677C5.38868 9.91677 4.08301 8.61057 4.08301 7.00022C4.08301 5.38917 5.38868 4.0835 6.99973 4.0835C8.61008 4.0835 9.91646 5.38917 9.91646 7.00022C9.91646 8.61057 8.61008 9.91677 6.99973 9.91677ZM9.91699 3.2085C9.91699 3.69167 10.3083 4.0835 10.792 4.0835C11.2757 4.0835 11.667 3.69167 11.667 3.2085C11.667 2.72532 11.2757 2.3335 10.792 2.3335C10.3083 2.3335 9.91699 2.72532 9.91699 3.2085Z"/>
        </symbol>
    </defs>
</svg>
