<svg width="89" height="24" viewBox="0 0 89 24" fill="none" xmlns="http://www.w3.org/2000/svg">
<g clip-path="url(#clip0_1801_732)">
<path d="M28.495 9.224C28.495 7.624 26.96 5.946 24.292 5.946C21.3 5.946 18.015 8.149 17.512 12.546C16.998 16.986 19.749 18.959 22.522 18.959C25.295 18.959 26.747 17.874 28.232 16.427C26.955 14.817 25.306 15.561 24.99 15.725C24.4669 16.0165 23.8745 16.1606 23.276 16.142C22.206 16.142 21.114 15.66 21.114 13.654C27.97 12.974 28.494 10.814 28.494 9.224H28.495ZM25.097 9.487C25.053 9.98 24.857 10.824 21.385 11.297C22.115 8.687 23.515 8.491 24.158 8.491C24.2883 8.48505 24.4184 8.50722 24.5394 8.556C24.6604 8.60478 24.7694 8.67903 24.8592 8.77371C24.9489 8.86839 25.0172 8.98127 25.0595 9.1047C25.1017 9.22812 25.1169 9.35919 25.104 9.489L25.097 9.487ZM13.485 9.915L11.891 14.947L10.766 6.21C8.256 6.21 6.906 8.008 6.202 9.904L4.258 14.958L3.985 9.958C3.837 7.634 1.715 6.22 0 6.22L2.074 18.86C4.704 18.85 6.124 17.062 6.867 15.166L8.511 10.869C8.526 11.044 9.647 18.861 9.647 18.861C12.289 18.861 13.709 17.184 14.47 15.353L18.17 6.221C15.565 6.221 14.192 8.008 13.483 9.915H13.485ZM38.191 5.915C36.564 5.915 35.321 6.803 34.271 8.107V8.097L35.209 0.5C33.047 0.5 31.289 2.386 30.951 5.192L29.325 18.762C30.57 18.762 31.891 18.4 32.601 17.479C33.235 18.301 34.184 18.959 35.593 18.959C39.239 18.959 41.74 14.706 41.74 10.715C41.718 7.075 39.96 5.925 38.202 5.925L38.191 5.915ZM37.851 12.438C37.471 14.663 36.235 16.176 35.046 16.176C33.857 16.176 33.332 15.639 33.332 15.639C33.562 13.689 33.704 12.493 34.14 11.462C34.576 10.431 35.614 8.787 36.695 8.787C37.755 8.787 38.235 10.201 37.852 12.437L37.851 12.438ZM50.833 6.211H48.289L48.299 6.079C48.474 4.413 48.867 3.536 50.163 3.393C51.048 3.305 51.441 2.845 51.539 2.341L51.856 0.576C46.756 0.543 45.142 2.756 44.731 6.134L44.721 6.211H44.666C43.836 6.211 42.92 7.154 42.766 8.349L42.711 8.787H44.415L42.985 20.647L42.547 22.774C42.602 22.774 42.667 22.784 42.721 22.784C45.111 22.696 46.641 20.8 46.979 18.048L48.095 8.785H48.895C49.681 8.785 50.599 7.995 50.759 6.68L50.833 6.211ZM64.065 5.991C61.128 5.991 58.355 8.161 57.505 11.571C56.655 14.981 57.943 19.014 62.265 19.014C66.587 19.014 69.062 14.814 69.062 11.318C69.066 7.843 66.72 5.99 64.066 5.99L64.065 5.991ZM65.255 12.327C65.103 13.873 64.425 16.219 62.569 16.219C60.713 16.219 60.964 13.479 61.144 12.174C61.341 10.782 62.116 8.798 63.786 8.798C65.288 8.798 65.429 10.585 65.256 12.328L65.255 12.327ZM83.575 9.904L81.981 14.936C81.938 14.541 80.857 6.199 80.857 6.199C78.347 6.199 77.003 7.997 76.299 9.893L74.355 14.947C74.345 14.585 74.082 9.947 74.082 9.947C73.924 7.623 71.804 6.209 70.082 6.209L72.145 18.849C74.775 18.839 76.195 17.051 76.938 15.155L78.576 10.858C78.586 11.033 79.712 18.85 79.712 18.85C82.354 18.85 83.768 17.173 84.535 15.342L88.238 6.21C85.64 6.21 84.264 7.997 83.565 9.904H83.575ZM53.235 0.574001L51.095 17.904L50.657 20.042C50.711 20.042 50.777 20.052 50.831 20.052C53.133 20.019 54.771 17.992 55.078 15.437L56.311 5.494C56.685 2.457 54.884 0.572001 53.235 0.572001V0.574001Z" fill="white"/>
</g>
<defs>
<clipPath id="clip0_1801_732">
<rect width="89" height="23" fill="white" transform="translate(0 0.5)"/>
</clipPath>
</defs>
</svg>
